<svg xmlns="http://www.w3.org/2000/svg" width="1569.1" height="242.27" viewBox="0 0 415.16 64.1">
  <defs>
    <radialGradient id="b" cx="0" cy="0" r="1" gradientTransform="translate(-127.95 115.47) scale(71.266517)" gradientUnits="userSpaceOnUse">
      <stop stop-color="#000AFA"/>
      <stop offset=".97" stop-color="#BA477F"/>
    </radialGradient>
    <radialGradient id="a" cx="0" cy="0" r="1" gradientTransform="translate(-127.95 115.47) scale(71.266517)" gradientUnits="userSpaceOnUse">
      <stop stop-color="#000AFA"/>
      <stop offset=".97" stop-color="#BA477F"/>
    </radialGradient>
  </defs>
  <path d="M129.85 98.7V82.14h2.53V98.7zm-5.1-15.63v-2.4h12.72v2.4zm18.37 15.81q-2.7 0-4.17-1.5-1.48-1.5-1.48-4.27v-1.45q0-2.87 1.42-4.45 1.42-1.57 4-1.57 2.43 0 3.76 1.78 1.34 1.79 1.34 5.01v.85h-8.68v-2.04h6.27q-.1-1.56-.81-2.44-.7-.88-1.88-.88-1.42 0-2.22.94-.8.94-.8 2.67v1.63q0 1.6.85 2.46.86.86 2.4.86.77 0 1.52-.31.76-.31 1.35-.87l1.67 1.66q-.96.92-2.15 1.43-1.2.5-2.4.5zm12.9 0q-1.72 0-3.12-.5-1.39-.5-2.5-1.5l1.51-1.86q1.05.8 2.07 1.2 1.03.4 2.03.4 1.5 0 2.25-.47.76-.47.76-1.4 0-.72-.51-1.02-.5-.3-1.32-.38-.8-.1-1.73-.16-.78-.06-1.55-.19t-1.4-.47q-.64-.35-1.02-1.02-.37-.67-.37-1.8 0-2.04 1.25-3.06 1.25-1.01 3.73-1.01 1.51 0 2.82.4 1.3.41 2.44 1.26l-1.53 1.85q-.96-.62-1.9-.93-.94-.31-1.83-.31-1.29 0-1.93.44-.65.44-.65 1.32 0 .58.45.84.44.25 1.18.32.73.08 1.57.14.8.05 1.63.18.83.13 1.52.5.7.37 1.12 1.1.42.74.42 2 0 2.07-1.35 3.1-1.34 1.03-4.05 1.03zm11.96-.12q-1.58 0-2.3-.88-.71-.88-.71-2.53V82.08h2.53v13.3q0 .45.19.71.18.26.54.26h1.22v2.4zm-4.34-10.66v-2.28h5.8v2.28zm15.05 10.78q-1.2 0-2.1-.57-.9-.58-1.31-1.64l.17-2.69q0 .83.3 1.42.3.58.85.89.57.3 1.38.3 1.25 0 1.93-.75.7-.77.7-2.16V90.9q0-1.41-.7-2.2-.68-.77-1.93-.77-.8 0-1.38.3-.56.3-.85.86-.3.57-.3 1.4l-.26-2.49q.58-1.13 1.52-1.73.95-.62 2.1-.62 2.07 0 3.2 1.37 1.13 1.37 1.13 3.87v2.8q0 2.47-1.17 3.84-1.16 1.36-3.28 1.36zm-5.77-.18V80.66h2.53V98.7zm19.09.18q-2.7 0-4.17-1.5-1.48-1.5-1.48-4.27v-1.45q0-2.87 1.42-4.45 1.42-1.57 4-1.57 2.43 0 3.76 1.78 1.34 1.79 1.34 5.01v.85h-8.68v-2.04h6.27q-.1-1.56-.81-2.44-.7-.88-1.88-.88-1.42 0-2.22.94-.8.94-.8 2.67v1.63q0 1.6.85 2.46.86.86 2.4.86.77 0 1.52-.31.76-.31 1.35-.87l1.67 1.66q-.96.92-2.15 1.43-1.19.5-2.4.5zm11.7-.12q-1.6 0-2.31-.88t-.71-2.53V82.08h2.53v13.3q0 .45.18.71.19.26.55.26h1.22v2.4zm-4.35-10.66v-2.28h5.8v2.28zm9.28 10.6V85.82h2.53V98.7zm7.08-9.83q-.34-.4-.84-.62-.51-.2-1.18-.2-1.2 0-1.87.66-.66.66-.66 1.84l-.26-2.48q.58-1.14 1.52-1.79.96-.64 2.1-.64.88 0 1.59.26.72.24 1.25.74zm3.76-5.68v-2.53H222v2.53zm0 15.5V85.83H222V98.7zm11.64.2q-2.69 0-4.16-1.5-1.48-1.51-1.48-4.28v-1.45q0-2.87 1.41-4.45 1.43-1.57 4.01-1.57 2.43 0 3.76 1.78 1.34 1.79 1.34 5.01v.85h-8.68v-2.04h6.27q-.11-1.56-.82-2.44-.7-.88-1.87-.88-1.43 0-2.22.94-.8.94-.8 2.67v1.63q0 1.6.85 2.46.86.86 2.4.86.76 0 1.52-.31t1.35-.87l1.66 1.66q-.95.92-2.14 1.43-1.2.5-2.4.5zm14.12 0q-1.2 0-2.1-.58-.9-.58-1.31-1.64l.17-2.69q0 .83.3 1.42.3.58.85.89.57.3 1.38.3 1.25 0 1.94-.75.69-.77.69-2.16V90.9q0-1.41-.7-2.2-.68-.77-1.93-.77-.8 0-1.38.3-.55.3-.85.86-.3.57-.3 1.4l-.26-2.49q.58-1.13 1.53-1.73.94-.62 2.1-.62 2.06 0 3.2 1.37 1.12 1.37 1.12 3.87v2.8q0 2.47-1.17 3.84-1.16 1.36-3.28 1.36zm-5.77-.2V80.67H242V98.7z" aria-label="Testbetrieb" font-family="Bahnschrift" font-size="25.4" letter-spacing="0" style="line-height:1.25;-inkscape-font-specification:Bahnschrift;text-align:center" text-anchor="middle" transform="translate(131.82 -62.78)" word-spacing="0"/>
  <path fill="#2a2623" d="M265.74 48.09c.75 0 1.3-.33 1.59-.92v.79h.48v-2.47h-2.02v.48h1.5v.04c0 .91-.54 1.6-1.49 1.6-1.18 0-1.63-.92-1.63-2.1 0-1.37.71-2.08 1.7-2.08.79 0 1.34.4 1.4 1.16l.54-.11c-.11-.99-.9-1.54-1.91-1.54-1.3 0-2.27.91-2.27 2.6 0 1.38.63 2.55 2.1 2.55zm4.7-.05c.74 0 1.24-.34 1.46-.99l-.49-.1c-.16.42-.45.63-.96.63-.68 0-1.1-.42-1.14-1.24h2.6v-.13c0-1.04-.46-1.83-1.5-1.83-1.01 0-1.6.77-1.6 1.86 0 1.16.65 1.8 1.63 1.8zm-1.11-2.13c.08-.65.43-1.07 1.1-1.07.64 0 .91.4.96 1.07zm3.75 2.05h.51v-3.05h.75v-.46h-.75v-.53c0-.34.11-.49.45-.49h.39v-.45h-.5c-.56 0-.85.28-.85.92v.55h-.58v.46h.58zm3.46.08c1 0 1.63-.7 1.63-1.83 0-1.13-.63-1.83-1.63-1.83-1 0-1.64.7-1.64 1.83 0 1.13.63 1.83 1.64 1.83zm0-.48c-.69 0-1.12-.48-1.12-1.35 0-.87.43-1.35 1.12-1.35.68 0 1.1.48 1.1 1.35 0 .87-.42 1.35-1.1 1.35zm.37-3.65h.56v-.6h-.56zm-1.31 0h.56v-.6h-.56zm3.52 4.05h.51V46.2c0-.76.29-1.3 1.03-1.3h.2v-.49h-.22a1 1 0 0 0-1.02.73v-.69h-.5zm3.75.08c.68 0 1.03-.35 1.2-.79v.71h.5v-4.98h-.51v2.07c-.19-.38-.56-.67-1.17-.67-1.07 0-1.55.86-1.55 1.84 0 .96.46 1.82 1.53 1.82zm.07-.48c-.77 0-1.07-.6-1.07-1.36 0-.75.3-1.36 1.08-1.36s1.1.6 1.1 1.34c0 .76-.33 1.38-1.1 1.38zm4.21.48c.74 0 1.24-.34 1.47-.99l-.5-.1c-.16.42-.44.63-.95.63-.68 0-1.1-.42-1.15-1.24h2.6v-.13c0-1.04-.46-1.83-1.49-1.83-1.01 0-1.61.77-1.61 1.86 0 1.16.65 1.8 1.63 1.8zm-1.1-2.13c.07-.65.42-1.07 1.09-1.07.64 0 .92.4.96 1.07zm3.52 2.05h.5V46.2c0-.76.3-1.3 1.04-1.3h.2v-.49h-.22a1 1 0 0 0-1.02.73v-.69h-.5Zm3.68 0h.54v-.45h-.44c-.34 0-.45-.16-.45-.49v-2.11h.81v-.46h-.8v-1.13l-.52.14v1h-.67v.45h.67v2.17c0 .6.3.88.86.88zm-15.45 7.68c.68 0 1.03-.35 1.2-.78v.7h.5V50.6h-.51v2.07c-.19-.39-.56-.67-1.17-.67-1.07 0-1.55.85-1.55 1.83 0 .97.46 1.82 1.53 1.82zm.07-.47c-.77 0-1.07-.61-1.07-1.36 0-.75.3-1.36 1.08-1.36s1.1.59 1.1 1.34c0 .76-.33 1.38-1.1 1.38zm3.92.47c.6 0 .99-.3 1.19-.76v.68h.5v-3.5h-.52v1.83c0 .76-.4 1.31-1.04 1.31-.45 0-.76-.27-.76-.83v-2.31h-.51v2.4c0 .74.43 1.18 1.14 1.18zm2.87-.08h.51v-1.75c0-.77.29-1.3 1.03-1.3h.2v-.5h-.22a1 1 0 0 0-1.02.73v-.68h-.5zm3.8.08c.8 0 1.36-.44 1.47-1.2l-.5-.1c-.06.55-.4.83-.94.83-.77 0-1.09-.6-1.09-1.36 0-.76.32-1.35 1.12-1.35.52 0 .87.26.9.77l.51-.1c-.09-.74-.64-1.14-1.4-1.14-1.11 0-1.65.83-1.65 1.85 0 .98.49 1.8 1.58 1.8zm2.43-.08h.51v-1.84c0-.8.48-1.28 1.1-1.28.46 0 .78.27.78.83v2.3h.51v-2.4c0-.74-.4-1.18-1.16-1.18-.63 0-1.02.32-1.23.76v-2.16h-.5z"/>
  <path stroke="#2a2623" stroke-width=".33" d="M299.26 42.22V64.1"/>
  <path fill="#2a2623" d="M319.33 60.17c.45-.12.78-.59.74-1.12-.04-.66-.67-1.36-2.15-1.07-.55.1-.99.26-1.41.44-.45.18-.87.38-1.37.56a3.2 3.2 0 0 1-1.28.23c-.3-.03-.53-.14-.67-.34-.18-.28.09-.56.2-.64.21-.14.4-.37.29-.75-.2.03-.55.15-.83.37a1 1 0 0 0-.43.77c.02.46.33.82.86.95.36.08.64.1.97.06.48-.06 1.06-.27 2.12-.66a6.85 6.85 0 0 1 1.96-.56c.26-.02.48.03.72.11a.7.7 0 0 1 .33.23c.08.1.12.23.1.36a.55.55 0 0 1-.62.52l-.26-.05a3.91 3.91 0 0 0-1.27-.05c-.36.03-.8.12-1.33.3-1.12.36-1.96.5-2.61.53a4.04 4.04 0 0 1-1.87-.34 3.3 3.3 0 0 0-.25-1 2.4 2.4 0 0 0-.6-.85s.1-.05.14-.38c-.24-.05-.57.08-.57.08s-.61-.4-1.44-.25c-.32.05-.47.14-.56.28-.66.25-.71.29-.88.39-.11.06-.1.16-.1.18 0 .05.03.09.04.1.02.02.03.04.03.08 0 .19-.01.18.05.33.02.06.08.05.15.03.43-.16.77-.04.8.26 0 .25-.23.44-.55.46l-.14.01c-.05 0-.09 0-.08.07 0 .05.07.22.1.27.04.13.07.15.18.16.21 0 .49-.05.58-.08 0 0-.01.27.07.64a4.8 4.8 0 0 0-1.92-.33c-.62.03-1.03.15-1.3.3-.49.28-.54.63-.54.63s.72.17 1 .09c.2-.06.34-.25.34-.25s.47.1 1.09.43c.3.16.64.37.97.66l.83-.36c.1-.03.17.03.18.06.03.05.04.15-.04.2-.07.06-.59.3-1.1.59l-.97.59a3.35 3.35 0 0 0-.57-.04c-.48 0-.8.42-.8.73h1.87c.08-.03.85-.19 1.64-.35l1.46-.29.24-.04c.04-.01.1-.02.15-.07a.32.32 0 0 0 .07-.11l.08-.23.4-.04a6.57 6.57 0 0 0 1.47-.3c.55-.17 1.03-.4 1.45-.6.51-.24.93-.45 1.3-.46-.06.36.02.64.08.92.05.26.08.52-.06.84-1.08 0-.96.73-.96.73h1.87s.14-.43.44-.9c.14-.22.3-.45.53-.65.04-.04.04-.09.01-.12-.23-.3-.35-.89-.35-.89-.02-.07.07-.12.1-.13.03 0 .12 0 .14.08 0 0 .04.41.43.77.25.23.55.4.84.54.36.17.72.29.99.37.3.09.33.19.33.22h-.13a.8.8 0 0 0-.53.23c-.21.2-.17.48-.17.48h1.29c.17 0 .23-.1.28-.29l.2-.78c.05-.19 0-.29-.06-.34a4.18 4.18 0 0 0-1-.65 4.68 4.68 0 0 0-.73-1.87zm-11.03-2.03c.2-.11.45-.14.66-.12-.02.38-.55.48-.66.12zm-1.82.81a.4.4 0 0 1 .03-.05l.01-.01h.01c.01.15.1.38.51.43.4.05.7-.01.95-.09.03.07.02.18-.11.23-.12.03-.44.12-.93.07-.47-.05-.58-.34-.47-.58zm12.85-6.41c.45-.12.78-.59.74-1.12-.04-.67-.67-1.37-2.15-1.07-.55.1-.99.26-1.41.44-.45.18-.87.38-1.37.55a3.2 3.2 0 0 1-1.28.24c-.3-.03-.53-.14-.67-.34-.18-.28.09-.56.2-.64.21-.14.4-.37.29-.75-.2.03-.55.15-.83.37a1 1 0 0 0-.43.77c.02.46.33.82.86.94.36.09.64.12.97.07.48-.06 1.06-.27 2.12-.66a6.86 6.86 0 0 1 1.96-.57c.26 0 .48.04.72.12a.7.7 0 0 1 .33.22.5.5 0 0 1 .1.37.55.55 0 0 1-.62.51c-.07 0-.16-.02-.26-.04a3.9 3.9 0 0 0-1.27-.06c-.36.04-.8.13-1.33.3a9.32 9.32 0 0 1-2.61.53 4.04 4.04 0 0 1-1.87-.33 3.3 3.3 0 0 0-.25-1 2.4 2.4 0 0 0-.6-.85s.1-.06.14-.38c-.24-.05-.57.08-.57.08s-.61-.4-1.44-.25c-.32.05-.47.14-.56.28-.66.25-.71.29-.88.38-.11.07-.1.17-.1.19 0 .05.03.08.04.1.02.02.03.04.03.08 0 .19-.01.17.05.33.02.06.08.05.15.03.43-.16.77-.04.8.26 0 .25-.23.43-.55.46h-.14c-.05.01-.09.02-.08.08 0 .05.07.22.1.27.04.13.07.15.18.16.21 0 .49-.05.58-.08 0 0-.01.27.07.64a4.8 4.8 0 0 0-1.92-.33c-.62.03-1.03.15-1.3.3-.49.28-.54.63-.54.63s.72.17 1 .09c.2-.06.34-.25.34-.25s.47.1 1.09.43c.3.16.64.37.97.66l.83-.36c.1-.03.17.03.18.06.03.05.04.15-.04.2-.07.06-.59.3-1.1.59l-.97.59a3.37 3.37 0 0 0-.57-.04c-.48 0-.8.42-.8.73h1.87c.08-.03.85-.19 1.64-.35l1.46-.29.24-.04c.04-.01.1-.02.15-.07a.32.32 0 0 0 .07-.11l.08-.23.4-.04a6.56 6.56 0 0 0 1.47-.3c.55-.17 1.03-.4 1.45-.6.51-.24.93-.45 1.3-.46-.06.36.02.64.08.92.05.26.08.52-.06.84-1.08 0-.96.73-.96.73h1.87s.14-.43.44-.9c.14-.22.3-.45.53-.65.04-.04.04-.09.01-.12-.23-.3-.35-.89-.35-.89-.02-.07.07-.13.1-.13s.12 0 .14.08c0 0 .04.41.43.77.25.22.55.4.84.54.36.17.72.29.99.37.3.08.33.18.33.21l-.13.01a.8.8 0 0 0-.53.23c-.21.2-.17.48-.17.48h1.29c.17 0 .23-.1.28-.29l.2-.78c.05-.19 0-.29-.06-.34a4.14 4.14 0 0 0-1-.65 4.67 4.67 0 0 0-.73-1.87zM308.3 50.5c.2-.12.45-.15.66-.12-.02.38-.55.48-.66.12zm-1.82.81a.4.4 0 0 1 .03-.05l.01-.02h.01c.01.16.1.39.51.44.4.05.7-.02.95-.1.03.08.02.18-.11.23-.12.04-.44.13-.93.08-.47-.05-.58-.34-.47-.58zm12.85-6.41c.45-.12.78-.6.74-1.13-.04-.66-.67-1.36-2.15-1.06-.55.1-.99.26-1.41.43-.45.19-.87.38-1.37.56a3.2 3.2 0 0 1-1.28.24c-.3-.03-.53-.14-.67-.34-.18-.28.09-.57.2-.64.21-.14.4-.37.29-.75-.2.03-.55.15-.83.37a1 1 0 0 0-.43.77c.02.46.33.82.86.94.36.09.64.11.97.07.48-.06 1.06-.27 2.12-.67a6.85 6.85 0 0 1 1.96-.56c.26 0 .48.04.72.12a.7.7 0 0 1 .33.22c.08.11.12.24.1.36a.55.55 0 0 1-.62.52c-.07 0-.16-.02-.26-.04a3.91 3.91 0 0 0-1.27-.06c-.36.04-.8.13-1.33.3-1.12.36-1.96.5-2.61.53a4.04 4.04 0 0 1-1.87-.34 3.3 3.3 0 0 0-.25-1 2.4 2.4 0 0 0-.6-.84s.1-.06.14-.39c-.24-.04-.57.09-.57.09s-.61-.4-1.44-.26c-.32.06-.47.15-.56.3-.66.23-.71.28-.88.37-.11.07-.1.16-.1.19 0 .05.03.08.04.1a.1.1 0 0 1 .03.07c0 .2-.01.18.05.33.02.07.08.06.15.04.43-.17.77-.04.8.26 0 .25-.23.43-.55.46h-.14c-.05.01-.09.02-.08.08 0 .04.07.22.1.27.04.13.07.15.18.15.21.01.49-.04.58-.07 0 0-.01.27.07.64a4.8 4.8 0 0 0-1.92-.33c-.62.02-1.03.15-1.3.3-.49.28-.54.63-.54.63s.72.17 1 .09c.2-.06.34-.25.34-.25a4.84 4.84 0 0 0 2.06 1.08c.01.02.79-.34.83-.35.1-.04.17.03.18.06.03.05.04.14-.04.2-.07.06-.59.29-1.1.59l-.97.58a3.35 3.35 0 0 0-.57-.03c-.48 0-.8.42-.8.73h1.87c.08-.03.85-.2 1.64-.35l1.46-.29.24-.05a.2.2 0 0 0 .15-.06.32.32 0 0 0 .07-.12l.08-.22.4-.04a6.57 6.57 0 0 0 1.47-.3c.55-.18 1.03-.4 1.45-.6.51-.25.93-.45 1.3-.47-.06.37.02.65.08.92.05.27.08.53-.06.85-1.08 0-.96.73-.96.73h1.87s.14-.43.44-.9c.14-.23.3-.45.53-.65.04-.04.04-.09.01-.12-.23-.3-.35-.9-.35-.9-.02-.07.07-.12.1-.12s.12 0 .14.08c0 0 .04.4.43.77.25.22.55.4.84.54.36.17.72.28.99.36.3.1.33.2.33.22l-.13.01a.8.8 0 0 0-.53.23c-.21.2-.17.48-.17.48h1.29c.17 0 .23-.1.28-.3.04-.11.2-.73.2-.77.05-.2 0-.3-.06-.35a4.18 4.18 0 0 0-1-.65 4.68 4.68 0 0 0-.73-1.86zm-11.03-2.03c.2-.12.45-.15.66-.12-.02.38-.55.48-.66.12zm-1.82.8a.4.4 0 0 1 .03-.04l.01-.02h.01c.01.16.1.39.51.44.4.05.7-.02.95-.1.03.07.02.18-.11.23-.12.04-.44.13-.93.08-.47-.05-.58-.34-.47-.58zm21.32 4.29h2.12c1.04 0 1.59-.67 1.59-1.4 0-.53-.3-1.02-.9-1.18.5-.16.75-.64.75-1.12 0-.6-.42-1.2-1.31-1.2h-2.26zm2.02-.87h-1.1v-1.31h1.14c.47 0 .71.29.71.63 0 .36-.23.68-.75.68zm-.05-2.05h-1.05v-1.12h1.09c.4 0 .6.23.6.53 0 .32-.22.59-.64.59zm3.48 3c.6 0 1-.27 1.22-.7v.62h.84v-2.47c0-.81-.47-1.2-1.45-1.2-.9 0-1.5.32-1.68 1.03l.85.18c.06-.33.28-.52.78-.52.4 0 .6.14.6.43 0 .28-.18.34-.46.39l-.72.1c-.53.07-1.15.27-1.15 1.07 0 .69.49 1.07 1.17 1.07zm.26-.75c-.33 0-.53-.14-.53-.42 0-.32.29-.4.55-.44l.4-.06c.2-.03.35-.06.48-.11v.2c0 .5-.37.83-.9.83zm4.1.75c.62 0 1-.3 1.15-.67v.59h.84v-4.98h-.9v1.86c-.2-.35-.58-.56-1.08-.56-1 0-1.59.77-1.59 1.89 0 1.12.6 1.87 1.59 1.87zm.2-.82c-.56 0-.86-.43-.86-1.07 0-.64.3-1.05.87-1.05.57 0 .88.4.88 1.03 0 .66-.31 1.09-.88 1.09zm4.3.82c.83 0 1.4-.35 1.63-1.01l-.84-.18c-.12.3-.36.46-.77.46-.54 0-.84-.3-.9-.9h2.52v-.24c0-1.04-.48-1.89-1.65-1.89-1.15 0-1.75.83-1.75 1.92 0 1.18.71 1.84 1.77 1.84zm-.85-2.24c.08-.51.34-.79.84-.79.5 0 .74.28.77.79zm3.25 2.16h.9V46c0-.6.32-.92.8-.92.37 0 .62.23.62.67v2.21h.9v-2.37c0-.82-.4-1.3-1.2-1.3-.55 0-.95.21-1.16.62v-.56h-.86zm3.95-2h1.94v-.81h-1.94zm3.46 2H353l.96-3.61.97 3.61h1.06l1.25-4.9h-.96l-.86 3.67-.92-3.67h-1.07l-.92 3.67-.86-3.67h-.96zm7 .08c.52 0 .92-.23 1.1-.7v.62h.85v-3.61h-.9v1.98c0 .57-.3.93-.74.93-.38 0-.62-.22-.62-.67v-2.24h-.9v2.38c0 .82.43 1.3 1.2 1.3zm.66-4.17h.78v-.8h-.78zm-1.34 0h.78v-.8h-.78zm3.63 4.09h.9v-1.78c0-.63.23-1 .85-1h.32v-.88h-.32c-.46 0-.77.28-.89.7v-.65h-.86zm4.06 0h.68v-.8h-.44c-.28 0-.37-.1-.37-.38v-1.64h.73v-.8h-.73v-1.07l-.9.25v.83h-.62v.79h.62v1.8c0 .68.34 1.02 1.03 1.02zm2.7 0h.67v-.8h-.43c-.28 0-.37-.1-.37-.38v-1.64h.73v-.8h-.73v-1.07l-.9.25v.83h-.63v.79h.62v1.8c0 .68.35 1.02 1.03 1.02zm2.92.08c.83 0 1.4-.35 1.63-1.01l-.85-.18c-.11.3-.36.46-.77.46-.54 0-.84-.3-.9-.9h2.52v-.24c0-1.04-.47-1.89-1.65-1.89-1.15 0-1.74.83-1.74 1.92 0 1.18.7 1.84 1.76 1.84zm-.86-2.24c.08-.51.34-.79.84-.79.5 0 .74.28.77.79zm3.24 2.16h.9v-2.1c0-.52.3-.78.68-.78.33 0 .54.2.54.58v2.3h.9v-2.1c0-.52.3-.78.68-.78.34 0 .55.2.55.58v2.3h.9v-2.5c0-.78-.52-1.18-1.16-1.18-.51 0-.94.2-1.15.67-.13-.46-.53-.67-.97-.67-.44 0-.81.2-1 .6v-.53h-.87zm8.08.08c.99 0 1.59-.77 1.59-1.9 0-1.1-.57-1.86-1.56-1.86-.53 0-.92.25-1.11.62v-1.92h-.9v4.98h.84v-.57c.15.36.55.65 1.14.65zm-.2-.82c-.56 0-.88-.4-.88-1.06 0-.64.32-1.05.9-1.05.56 0 .85.4.85 1.04 0 .65-.3 1.07-.87 1.07zm4.07.82c.82 0 1.4-.35 1.62-1.01l-.84-.18c-.12.3-.36.46-.77.46-.54 0-.84-.3-.9-.9h2.52v-.24c0-1.04-.48-1.89-1.65-1.89-1.15 0-1.75.83-1.75 1.92 0 1.18.71 1.84 1.77 1.84zm-.86-2.24c.08-.51.34-.79.84-.79.5 0 .74.28.77.79zm3.25 2.16h.9v-1.78c0-.63.23-1 .85-1h.32v-.88h-.32c-.46 0-.77.28-.89.7v-.65h-.86zm4.2 1.42c.98 0 1.78-.5 1.78-1.65v-3.38h-.89v.5c-.16-.33-.53-.57-1.07-.57-.87 0-1.6.61-1.6 1.81 0 1.18.71 1.75 1.56 1.75.52 0 .93-.22 1.13-.6v.6c0 .55-.34.83-.9.83s-.82-.25-.87-.6l-.87.2c.18.72.85 1.11 1.73 1.11zm0-2.3c-.48 0-.86-.31-.86-.98 0-.68.39-.99.88-.99s.86.32.86.99c0 .7-.4.98-.88.98zm-64.67 8.48h.87v-3.69l1.22 3.7h.97l1.22-3.7v3.7h.87v-4.9h-1.3l-1.27 3.79-1.28-3.8h-1.3zm6.2 0h.9v-3.6h-.9zm-.02-4.1h.93v-.92h-.93zm1.89 4.1h.9V53.6c0-.6.32-.91.79-.91.38 0 .63.22.63.66v2.21h.9V53.2c0-.82-.4-1.3-1.2-1.3-.55 0-.95.22-1.16.63v-.57h-.86zm4.16 0h.9v-3.6h-.9zm-.02-4.1h.93v-.92h-.93zm3.3 4.18c.85 0 1.48-.37 1.48-1.15 0-.72-.55-.92-1.1-1.02l-.56-.1c-.34-.07-.56-.16-.56-.42 0-.24.19-.38.56-.38.42 0 .68.17.71.52l.86-.19c-.12-.68-.7-1.01-1.54-1.01-.9 0-1.45.38-1.45 1.12 0 .78.6.99 1.16 1.08l.47.09c.34.06.58.14.58.4 0 .25-.21.37-.59.37-.44 0-.74-.16-.8-.51l-.87.18c.16.73.88 1.02 1.65 1.02zm3.44-.08h.68v-.79h-.44c-.28 0-.37-.1-.37-.38v-1.65h.73v-.79h-.73v-1.08l-.9.26v.82h-.63v.8h.63v1.79c0 .69.34 1.02 1.03 1.02zm2.92.08c.83 0 1.4-.35 1.63-1l-.85-.19c-.11.3-.36.46-.76.46-.55 0-.84-.3-.9-.9h2.52v-.23c0-1.04-.48-1.9-1.66-1.9-1.14 0-1.74.83-1.74 1.93 0 1.17.7 1.83 1.76 1.83zm-.86-2.24c.09-.51.35-.78.84-.78.5 0 .75.27.77.78zm3.25 2.16h.9V53.8c0-.63.24-1 .85-1h.33v-.88h-.32c-.46 0-.77.27-.89.69v-.65h-.87zm2.7 0h.9v-3.6h-.9zm-.02-4.1h.93v-.92h-.93zm3.05 4.18c.52 0 .92-.22 1.1-.7v.62h.85v-3.6h-.9v1.97c0 .57-.3.93-.74.93-.38 0-.62-.22-.62-.67v-2.24h-.9v2.39c0 .82.43 1.3 1.21 1.3zm2.94-.08h.9v-2.1c0-.51.3-.77.68-.77.33 0 .54.19.54.58v2.3h.9v-2.11c0-.51.3-.77.68-.77.34 0 .55.19.55.58v2.3h.9v-2.51c0-.77-.52-1.17-1.16-1.17-.51 0-.94.2-1.15.66-.13-.46-.53-.66-.97-.66-.44 0-.81.2-1 .6v-.54h-.87zm7.97 0h.9v-2.82h.68v-.79h-.68v-.26c0-.25.08-.35.33-.35h.43v-.75h-.68c-.63 0-.98.32-.98 1.05v.31h-.55v.8h.55zm3.41.08c.52 0 .92-.22 1.1-.7v.62h.85v-3.6h-.9v1.97c0 .57-.3.93-.74.93-.38 0-.62-.22-.62-.67v-2.24h-.9v2.39c0 .82.43 1.3 1.21 1.3zm.67-4.16h.77v-.81h-.77zm-1.35 0h.78v-.81h-.78zm3.63 4.08h.9V53.8c0-.63.23-1 .85-1h.32v-.88h-.31c-.47 0-.77.27-.9.69v-.65h-.86zm5.08 0h1.07l.96-3.6.97 3.6h1.06l1.25-4.9h-.96l-.86 3.67-.92-3.67h-1.07l-.92 3.67-.86-3.67h-.96zm5.94 0h.9v-3.6h-.9zm-.01-4.1h.93v-.92h-.93zm1.88 4.1h.9V53.8c0-.63.24-1 .85-1h.32v-.88h-.31c-.46 0-.77.27-.9.69v-.65h-.86zm4.06 0h.68v-.79h-.43c-.28 0-.37-.1-.37-.38v-1.65h.72v-.79h-.72v-1.08l-.9.26v.82h-.63v.8h.62v1.79c0 .69.35 1.02 1.03 1.02zm2.82.08c.84 0 1.48-.37 1.48-1.15 0-.72-.55-.92-1.1-1.02l-.56-.1c-.34-.07-.56-.16-.56-.42 0-.24.18-.38.56-.38.42 0 .67.17.71.52l.86-.19c-.12-.68-.7-1.01-1.54-1.01-.9 0-1.45.38-1.45 1.12 0 .78.6.99 1.16 1.08l.47.09c.34.06.58.14.58.4 0 .25-.21.37-.6.37-.43 0-.73-.16-.79-.51l-.87.18c.16.73.88 1.02 1.65 1.02zm3.68 0c.9 0 1.5-.45 1.62-1.2l-.9-.2c-.03.42-.27.62-.68.62-.6 0-.84-.43-.84-1.09 0-.64.22-1.1.85-1.1.4 0 .64.2.67.6l.9-.18c-.12-.75-.68-1.2-1.56-1.2-1.2 0-1.77.84-1.77 1.91 0 1.02.51 1.84 1.71 1.84zm2.39-.08h.9V53.6c0-.6.32-.91.8-.91.37 0 .62.22.62.66v2.21h.9V53.2c0-.82-.4-1.3-1.2-1.3-.52 0-.91.2-1.12.58V50.6h-.9zm5.14.08c.59 0 1-.26 1.22-.7v.62h.84V53.1c0-.81-.48-1.2-1.46-1.2-.89 0-1.5.32-1.67 1.03l.84.19c.07-.33.29-.53.78-.53.4 0 .6.14.6.44 0 .28-.18.34-.45.38l-.73.1c-.52.08-1.15.28-1.15 1.07 0 .7.5 1.07 1.18 1.07zm.26-.74c-.34 0-.53-.14-.53-.42 0-.32.28-.4.54-.44l.4-.06c.21-.03.35-.07.48-.12v.2c0 .51-.36.84-.9.84zm2.96.66h.9v-2.82h.68v-.79h-.68v-.26c0-.25.08-.35.33-.35h.43v-.75h-.68c-.63 0-.98.32-.98 1.05v.31h-.55v.8h.55zm3.56 0h.68v-.79h-.44c-.28 0-.37-.1-.37-.38v-1.65h.73v-.79h-.73v-1.08l-.9.26v.82h-.63v.8h.63v1.79c0 .69.34 1.02 1.03 1.02zm1.08.75.1.48c.58-.08 1.16-.43 1.16-1.36v-.86h-1.02v.93h.47c-.01.44-.18.7-.71.8zm-86.53 6.91h1l.4-1.14h1.96l.4 1.14h.99l-1.84-4.9h-1.07zm1.68-1.96.7-1.98.69 1.98zm3.72 1.96h.9v-1.77c0-.64.23-1 .85-1h.32v-.88h-.31c-.46 0-.77.27-.9.68v-.64h-.86zm4.7.08c.99 0 1.58-.76 1.58-1.89 0-1.1-.57-1.86-1.55-1.86-.54 0-.93.24-1.12.61v-1.91h-.9v4.97h.85v-.56c.14.35.54.64 1.14.64zm-.2-.82c-.56 0-.89-.4-.89-1.06 0-.64.33-1.05.9-1.05.57 0 .85.4.85 1.05 0 .64-.29 1.06-.86 1.06zm4.06.82c.83 0 1.4-.35 1.63-1l-.85-.19c-.11.3-.36.46-.76.46-.55 0-.84-.3-.9-.9h2.52v-.23c0-1.05-.48-1.9-1.66-1.9-1.15 0-1.74.83-1.74 1.93 0 1.17.7 1.83 1.76 1.83zm-.86-2.24c.09-.51.35-.78.84-.78.5 0 .75.27.77.78zm3.22 2.16h.9v-3.6h-.9zm0-4.1h.92v-.92h-.93zm3.1 4.1h.69v-.79h-.44c-.28 0-.37-.1-.37-.38V60.4h.73v-.79h-.73v-1.08l-.9.25v.83h-.63v.8h.63v1.78c0 .7.34 1.03 1.03 1.03zm4.24.08c.52 0 .92-.22 1.1-.7v.62h.86v-3.6h-.9v1.97c0 .57-.3.93-.75.93-.38 0-.61-.22-.61-.67v-2.24h-.9V62c0 .82.43 1.3 1.2 1.3zm2.95-.08h.9v-1.96c0-.6.33-.91.8-.91.37 0 .63.22.63.66v2.21h.9v-2.37c0-.82-.4-1.3-1.2-1.3-.55 0-.96.21-1.16.63v-.57h-.87zm5.53.08c.62 0 1-.3 1.14-.67v.6h.85v-4.98h-.9v1.85c-.2-.35-.58-.55-1.09-.55-1 0-1.58.76-1.58 1.88 0 1.12.6 1.87 1.58 1.87zm.2-.82c-.56 0-.86-.43-.86-1.06 0-.65.3-1.05.87-1.05.57 0 .88.4.88 1.03 0 .65-.32 1.08-.88 1.08zm5.47.74h.92V59.2h1.56v-.87h-4.04v.87h1.56zm4.3.08c1.08 0 1.76-.71 1.76-1.88 0-1.16-.68-1.87-1.76-1.87-1.07 0-1.77.71-1.77 1.87 0 1.17.7 1.88 1.77 1.88zm0-.85c-.5 0-.85-.32-.85-1.03 0-.7.34-1.03.85-1.03.5 0 .85.33.85 1.03 0 .71-.34 1.03-.85 1.03zm3.7.85c.51 0 .91-.22 1.1-.7v.62h.85v-3.6h-.9v1.97c0 .57-.3.93-.75.93-.37 0-.61-.22-.61-.67v-2.24h-.9V62c0 .82.43 1.3 1.2 1.3zm2.94-.08h.9v-1.77c0-.64.24-1 .85-1h.33v-.88h-.32a.89.89 0 0 0-.89.68v-.64h-.87zm2.7 0h.9v-3.6h-.9zm-.02-4.1h.93v-.92h-.93zm3.3 4.18c.84 0 1.47-.37 1.47-1.15 0-.72-.54-.92-1.09-1.02l-.57-.1c-.33-.07-.56-.16-.56-.43 0-.23.2-.37.56-.37.43 0 .68.17.72.52l.86-.19c-.13-.68-.7-1.01-1.54-1.01-.9 0-1.45.38-1.45 1.12 0 .78.6.99 1.16 1.08l.47.09c.34.06.58.14.58.4 0 .25-.21.37-.6.37-.43 0-.73-.16-.79-.51l-.88.18c.17.73.89 1.02 1.66 1.02zm2.2-.08h.9v-2.1c0-.52.3-.77.67-.77.34 0 .55.18.55.58v2.3h.9v-2.11c0-.52.3-.77.67-.77.34 0 .55.18.55.58v2.3h.9v-2.51c0-.77-.52-1.17-1.15-1.17-.52 0-.95.2-1.16.66-.12-.46-.52-.66-.96-.66-.45 0-.82.2-1 .6v-.54h-.87zm7.26.08c.52 0 .92-.22 1.11-.7v.62h.85v-3.6h-.9v1.97c0 .57-.3.93-.75.93-.38 0-.61-.22-.61-.67v-2.24h-.9V62c0 .82.43 1.3 1.2 1.3zm4.37 0c.84 0 1.47-.37 1.47-1.15 0-.72-.54-.92-1.09-1.02l-.57-.1c-.33-.07-.56-.16-.56-.43 0-.23.2-.37.56-.37.43 0 .68.17.72.52l.86-.19c-.13-.68-.7-1.01-1.54-1.01-.9 0-1.45.38-1.45 1.12 0 .78.6.99 1.16 1.08l.47.09c.34.06.58.14.58.4 0 .25-.21.37-.6.37-.43 0-.73-.16-.79-.51l-.88.18c.17.73.89 1.02 1.66 1.02z"/>
  <path fill="url(#a)" d="M-68.53 74.47c-1.91-1.97-4.72-.77-6.72.37-5.4 3.09-10.54 6.67-15.83 9.96-.2.12-.35.27-.47.43l2.71 2.02c4.54-2.84 9-5.8 13.57-8.59.79-.47 3.27-2.43 4.23-2 1.12.5.12 3.41-.12 4.27a127.63 127.63 0 0 1-5.39 14.76c-.34.78-.94 3.17-1.83 3.31-.62.1-2.03-1.11-2.52-1.45-.77-.53-1.52-1.1-2.28-1.64l-3.96-2.9c-5.84-4.29-11.62-8.66-17.47-12.94-1.7-1.25-3.32 1.59-1.64 2.81 5.65 4.15 11.25 8.38 16.9 12.54 2.74 2.02 5.49 4.45 8.5 6.04 2.29 1.2 4.45 1.13 5.82-1.26 1.57-2.72 2.65-5.93 3.78-8.85a114.3 114.3 0 0 0 3.24-9.56c.64-2.26 1.33-5.4-.52-7.31z" transform="translate(131.82 -62.78)"/>
  <path fill="url(#b)" d="M-109.62 105.83a825.4 825.4 0 0 1-8.54 4.91c-1.38.78-2.77 1.57-4.17 2.32-.72.4-1.76 1.12-2.59.64-1.1-.63-1-2.91-.87-3.97.31-2.41.95-4.85 1.5-7.22.9-3.84 2.07-7.6 3.2-11.37.6-2.02-2.54-2.88-3.15-.87-1.35 4.5-2.7 9-3.7 13.6-.76 3.59-2.72 9.7 1.03 12.42 2 1.44 4.26.65 6.23-.4 3.26-1.76 6.46-3.63 9.67-5.48 6.5-3.75 12.96-7.59 19.47-11.33.2-.11.37-.25.5-.41a851.2 851.2 0 0 1-2.77-2.04c-5.29 3.03-10.54 6.13-15.8 9.2z" transform="translate(131.82 -62.78)"/>
  <path d="M79.49 36.14v-8.88h.05L88 36.14h5.18L83.7 25.98l9.07-9.3h-5.13l-8.09 8.48h-.05v-8.47h-4.3v19.45zm18.96-19.45h-4.28v19.45h4.28zm35.13 19.45-8.94-19.46h-3.42l-8.94 19.46h4.3l1.79-4.22h9.1l1.8 4.22h4.31zm-13.78-7.56 3.1-7.34h.05l3.1 7.34h-6.25zm19.74-11.89h-4.28v19.45h13.28v-3.61h-9Zm24.81 15.84h-9V16.69h-4.27v19.45h13.27zm6.82-15.84h-4.28v19.45h4.28zm7.77 15.23h9.1l1.81 4.22h4.3l-8.93-19.45h-3.42l-8.95 19.45h4.31l1.79-4.22zm4.54-10.68h.05l3.1 7.34h-6.25l3.1-7.34zm16.34 2.5 9.71 12.4h3.17V16.7h-4v12.34l-9.69-12.34h-3.17v19.45h3.98zm31.24 8.84H220.9l9.72-12.75V16.7h-14.69v3.56h9.72L215.93 33v3.14h15.13zM118.05 46.54a2.4 2.4 0 0 0-.73-.3c.4-.14.73-.36 1-.65.34-.39.51-.87.51-1.45a2.2 2.2 0 0 0-.78-1.82 3.45 3.45 0 0 0-2.22-.63h-3.56v9.33H116c.65 0 1.2-.1 1.65-.3.45-.19.8-.47 1.04-.85s.36-.85.36-1.4c0-.44-.09-.83-.26-1.15a2.02 2.02 0 0 0-.74-.78zm-4.98-4.17h2.67c.74 0 1.3.16 1.7.46.38.3.57.75.57 1.33 0 .58-.19 1.03-.58 1.33-.39.3-.95.46-1.7.46h-2.66v-3.58zm5.07 6.79a1.47 1.47 0 0 1-.74.88c-.18.1-.39.17-.63.21-.25.05-.52.07-.83.07h-2.87v-3.69h2.87c.3 0 .58.03.83.07.24.05.45.13.63.22a1.44 1.44 0 0 1 .74.88 2.38 2.38 0 0 1-.01 1.35zm7.52-3.35c-.16-.35-.4-.64-.72-.87a2.53 2.53 0 0 0-1.53-.46c-.6 0-1.1.14-1.52.41-.43.27-.76.66-.99 1.15-.22.5-.34 1.08-.34 1.76 0 .68.12 1.27.35 1.77a2.63 2.63 0 0 0 2.5 1.55 2.6 2.6 0 0 0 1.53-.46c.32-.23.56-.52.72-.87v1.23h.8V44.6h-.8v1.22zm-.58 3.95c-.38.46-.9.69-1.57.69a1.9 1.9 0 0 1-1.54-.7 2.95 2.95 0 0 1-.59-1.95c0-.85.2-1.49.59-1.95.38-.45.9-.68 1.54-.68.65 0 1.19.22 1.57.68.39.46.58 1.11.58 1.95a3 3 0 0 1-.58 1.96zm8.03-3.97a2.21 2.21 0 0 0-.7-.85 2.53 2.53 0 0 0-1.54-.46c-.6 0-1.08.13-1.51.4-.43.28-.76.66-.99 1.16-.23.5-.34 1.08-.34 1.76 0 .68.12 1.27.35 1.77a2.62 2.62 0 0 0 2.5 1.55 2.6 2.6 0 0 0 1.53-.46c.32-.23.56-.52.71-.87v1.23h.8v-9.33h-.8v4.1zm-.56 3.97c-.38.46-.9.69-1.57.69a1.9 1.9 0 0 1-1.55-.7 2.95 2.95 0 0 1-.58-1.95c0-.85.2-1.49.58-1.95.39-.45.9-.68 1.55-.68.64 0 1.19.22 1.57.68.38.46.57 1.11.57 1.95a3 3 0 0 1-.57 1.96zm7.32-4.91a2.7 2.7 0 0 0-1.46-.37 3 3 0 0 0-1.57.42c-.45.28-.8.67-1.06 1.17-.26.5-.39 1.08-.39 1.75 0 .67.13 1.27.39 1.77.25.49.62.87 1.1 1.13a3.94 3.94 0 0 0 3.06.16c.43-.16.8-.37 1.08-.63l-.32-.61a3.19 3.19 0 0 1-2.14.8c-.5 0-.93-.1-1.29-.3a1.9 1.9 0 0 1-.81-.9 3.29 3.29 0 0 1-.27-1.27h4.93v-.37c0-.66-.1-1.21-.32-1.68a2.47 2.47 0 0 0-.93-1.07zm-3.67 2.53a3 3 0 0 1 .24-.99c.17-.4.42-.7.75-.93.34-.22.75-.33 1.23-.33.66 0 1.15.21 1.49.64.3.4.47.93.5 1.6h-4.2Zm10.65-2.63a2.7 2.7 0 0 0-1.28-.27c-.56 0-1.05.14-1.48.41-.32.21-.58.5-.76.85V44.6h-.8v6.42h.81v-3.67c0-.44.09-.82.26-1.15.17-.33.42-.58.74-.75.32-.18.69-.27 1.1-.27.38 0 .68.07.92.2s.41.33.52.6c.11.28.17.63.17 1.05v3.99h.8v-4.05c0-.56-.08-1.02-.24-1.4a1.7 1.7 0 0 0-.76-.82zm6.36 2.4h-3.6v.69h3.6zm10.59 2.71-2.82-8.18h-.69l-2.81 8.14-2.8-8.14h-.84l3.24 9.34h.74l2.82-8.1 2.8 8.1h.76l3.24-9.34h-.82zm8.86-1.61c0 .44-.09.82-.26 1.15a1.9 1.9 0 0 1-1.76 1.03c-.36 0-.66-.07-.9-.2a1.16 1.16 0 0 1-.52-.6 2.76 2.76 0 0 1-.17-1.04v-4h-.8v4.04c0 .55.08 1 .25 1.38.17.37.42.65.76.83.34.18.76.28 1.28.28.53 0 1-.14 1.43-.43.3-.2.54-.48.7-.83v1.15h.79V44.6h-.8v3.65zm-2.4-6.34h-.97v.95h.97zm2.21 0h-.97v.95h.97zm5.76 2.55c-.61.05-1.1.2-1.48.47-.29.2-.51.48-.68.84V44.6h-.8V51h.83v-3.76c0-.6.17-1.07.51-1.43.35-.35.83-.55 1.46-.62l.57-.06-.08-.7-.33.02zm5.05 5.9c-.14.04-.28.06-.43.06-.52 0-.88-.14-1.1-.42-.22-.28-.33-.7-.33-1.23v-3.52h2.07v-.65h-2.07v-2h-.81v1.99h-1.27v.65h1.27v3.62c0 .73.18 1.28.54 1.67.35.39.89.58 1.6.58a2.7 2.7 0 0 0 1.06-.24l-.15-.63-.37.11zm4.92 0c-.15.04-.3.06-.44.06-.51 0-.88-.14-1.1-.42-.22-.28-.33-.7-.33-1.23v-3.52h2.08v-.65h-2.08v-2h-.8v1.99h-1.28v.65h1.27v3.62c0 .73.18 1.28.54 1.67.36.39.9.58 1.6.58a2.7 2.7 0 0 0 1.07-.24l-.16-.63-.37.11zm5.38-5.51a2.7 2.7 0 0 0-1.47-.37 3 3 0 0 0-1.57.42c-.45.28-.8.67-1.06 1.17-.26.5-.38 1.08-.38 1.75 0 .67.12 1.27.38 1.77.26.49.62.87 1.1 1.13a3.94 3.94 0 0 0 3.06.16c.44-.16.8-.37 1.08-.63l-.31-.61a3.19 3.19 0 0 1-2.15.8c-.5 0-.92-.1-1.28-.3a1.9 1.9 0 0 1-.82-.9 3.29 3.29 0 0 1-.26-1.27h4.93v-.37c0-.66-.1-1.21-.32-1.68a2.47 2.47 0 0 0-.93-1.07zm-3.67 2.53a3 3 0 0 1 .23-.99c.17-.4.42-.7.76-.93.33-.22.74-.33 1.23-.33.65 0 1.14.21 1.48.64.31.4.47.93.5 1.6h-4.2zm14.46-2.63a2.3 2.3 0 0 0-1.18-.27c-.56 0-1.04.15-1.45.45-.32.23-.56.52-.72.88-.12-.4-.32-.7-.59-.92a2.1 2.1 0 0 0-1.36-.41c-.34 0-.66.06-.95.19a2.1 2.1 0 0 0-1.07 1.05V44.6h-.8v6.42h.81v-3.66c0-.45.08-.84.23-1.16.16-.33.37-.58.65-.76.28-.17.61-.26.99-.26.52 0 .9.15 1.12.44.22.3.33.77.33 1.41v3.98h.81v-3.65c0-.45.07-.84.22-1.16a1.7 1.7 0 0 1 1.63-1.03c.53 0 .9.15 1.14.45.22.3.33.76.33 1.4v4h.8v-4.06c0-.56-.07-1.02-.23-1.38-.16-.37-.4-.65-.7-.83zm7.31.14a2.73 2.73 0 0 0-1.5-.41c-.59 0-1.12.15-1.54.46-.32.23-.56.51-.72.86v-4.12h-.8v9.34h.8V49.8c.17.34.4.63.72.86.42.3.93.46 1.53.46s1.08-.13 1.5-.4c.43-.28.76-.66 1-1.16.23-.5.35-1.08.35-1.76a4.1 4.1 0 0 0-.35-1.76 2.7 2.7 0 0 0-.99-1.15zm-.07 4.87c-.38.46-.9.69-1.56.69-.65 0-1.17-.23-1.56-.7a2.95 2.95 0 0 1-.58-1.95c0-.85.2-1.49.58-1.95.39-.45.9-.68 1.56-.68s1.18.22 1.56.68c.4.46.59 1.11.59 1.95 0 .84-.2 1.5-.59 1.96zm7.07-4.91a2.7 2.7 0 0 0-1.47-.37 3 3 0 0 0-1.57.42c-.45.28-.8.67-1.06 1.17-.26.5-.38 1.08-.38 1.75 0 .67.12 1.27.38 1.77.26.49.62.87 1.1 1.13a3.94 3.94 0 0 0 3.06.16c.44-.16.8-.37 1.08-.63l-.32-.61a3.19 3.19 0 0 1-2.14.8c-.5 0-.92-.1-1.28-.3a1.9 1.9 0 0 1-.82-.9 3.3 3.3 0 0 1-.26-1.27h4.93v-.37c0-.66-.1-1.21-.32-1.68a2.47 2.47 0 0 0-.93-1.07zM215 47.38c.04-.37.12-.7.24-.99.17-.4.42-.7.76-.93.33-.22.74-.33 1.23-.33.65 0 1.14.21 1.48.64.3.4.47.93.5 1.6H215zm9.3-2.92c-.62.05-1.11.2-1.48.47-.3.2-.52.48-.69.84V44.6h-.8V51h.83v-3.76c0-.6.17-1.07.51-1.43.35-.35.83-.55 1.46-.62l.57-.06-.08-.7-.33.02zm5.96.14v1.21a2.05 2.05 0 0 0-.7-.86 2.54 2.54 0 0 0-1.54-.47c-.59 0-1.1.13-1.53.4a2.7 2.7 0 0 0-1 1.12 3.75 3.75 0 0 0-.35 1.67c0 .64.12 1.2.35 1.68a2.66 2.66 0 0 0 2.53 1.52c.6 0 1.1-.15 1.54-.46.32-.23.56-.52.72-.88v1.24c0 .66-.17 1.17-.5 1.53-.34.36-.83.54-1.48.54a4.8 4.8 0 0 1-.88-.08 3.2 3.2 0 0 1-.79-.27 5.49 5.49 0 0 1-.79-.47l-.3.6c.36.3.79.52 1.26.67a5 5 0 0 0 1.53.22c.6 0 1.1-.1 1.5-.32a2 2 0 0 0 .92-.96c.2-.42.3-.95.3-1.58V44.6h-.8zm-.57 4.9c-.38.46-.9.68-1.57.68s-1.19-.22-1.58-.68a2.73 2.73 0 0 1-.58-1.83c0-.77.2-1.38.58-1.83.39-.45.91-.67 1.58-.67.66 0 1.19.22 1.57.67.4.45.59 1.06.59 1.83s-.2 1.38-.59 1.83zM102.2 27.12v3.26h8.5v-3.26z"/>
  <path d="M-55.53 73.44v-1.38h2.05q.9 0 1.38-.45.5-.45.5-1.26v-2.58q0-.82-.5-1.27-.49-.45-1.38-.45h-2.05v-1.38h2.01q1.62 0 2.51.83.89.82.89 2.31v2.49q0 .96-.4 1.67-.38.7-1.14 1.09-.76.38-1.86.38zm-.83 0v-8.77h1.44v8.77zm11.48 0v-3.97q0-.52-.32-.81-.3-.3-.87-.3-.36 0-.71.12-.35.11-.63.32l-.96-.8q.37-.43.97-.67.6-.24 1.32-.24 1.2 0 1.87.61.66.6.66 1.72v4.02zm-1.64.09q-1.08 0-1.62-.48-.54-.47-.54-1.46 0-.93.55-1.39.54-.46 1.62-.46h1.68l.08 1.12h-1.75q-.42 0-.64.18-.22.18-.22.55 0 .4.28.59.28.19.84.19.67 0 1.01-.15.35-.16.35-.47l.12.89q-.1.3-.37.5-.25.2-.62.3-.36.09-.77.09zm6.4-.06q-.8 0-1.16-.43-.36-.43-.36-1.23v-6.45h1.44v6.25q0 .23.1.35.08.13.26.13h.5v1.38zm-2.17-5.03v-1.26h2.95v1.26zm7.14 5.09q-1.34 0-2.07-.73-.74-.73-.74-2.07v-.7q0-1.4.7-2.17.71-.77 2-.77 1.21 0 1.87.9.67.88.67 2.5v.4h-4.25v-1.05h2.9v-.07q-.06-.65-.37-1-.3-.38-.82-.38-.65 0-1 .41-.36.4-.36 1.15v.8q0 .71.38 1.1.39.38 1.09.38.35 0 .7-.14.35-.13.62-.37l.94.88q-.47.44-1.07.69-.6.24-1.2.24zm4-.1v-6.25h1.43v6.26zm3.7 0v-3.78q0-.57-.3-.87-.3-.3-.86-.3-.53 0-.82.28-.29.29-.29.8l-.12-1.29q.28-.56.7-.87.43-.3 1.03-.3 1 0 1.55.66t.55 1.88v3.8zm3.2 2.55v-8.8h1.43v8.8zm2.94-2.45q-.56 0-.98-.28-.41-.28-.61-.8l.08-1.36q0 .35.13.6.12.25.37.39.24.13.58.13.54 0 .83-.34.3-.34.3-.96v-1.17q0-.64-.3-.98-.3-.35-.83-.35-.34 0-.58.13-.25.13-.37.38-.13.25-.13.61l-.12-1.3q.27-.54.7-.84.43-.3.97-.3 1 0 1.55.7.55.68.55 1.94v1.18q0 1.25-.56 1.94-.56.68-1.58.68zm5.2-8.86v6.93q0 .22.12.35.12.13.33.13h.43v1.38h-.79q-.72 0-1.13-.44-.4-.43-.4-1.22v-7.13zm5.57 8.77v-3.97q0-.52-.31-.81-.3-.3-.88-.3-.36 0-.7.12-.36.11-.63.32l-.96-.8q.37-.43.96-.67.6-.24 1.33-.24 1.2 0 1.86.61.66.6.66 1.72v4.02zm-1.64.09q-1.07 0-1.61-.48-.54-.47-.54-1.46 0-.93.54-1.39.55-.46 1.63-.46h1.68l.08 1.12h-1.75q-.43 0-.64.18-.22.18-.22.55 0 .4.28.59.28.19.84.19.67 0 1-.15.35-.16.35-.47l.13.89q-.1.3-.37.5-.26.2-.62.3-.36.09-.78.09zm6.41-.06q-.8 0-1.16-.43-.36-.43-.36-1.23v-6.45h1.44v6.25q0 .23.09.35.09.13.26.13h.5v1.38zm-2.17-5.03v-1.26H-5v1.26zm6.2 5.03q-.8 0-1.16-.43-.37-.43-.37-1.23v-6.45h1.44v6.25q0 .23.1.35.09.13.26.13h.5v1.38zm-2.17-5.03v-1.26h2.94v1.26zm4.69 5v-7.1q0-.83.38-1.25.38-.42 1.18-.42h1.03V66h-.8q-.18 0-.27.15-.08.14-.08.33v6.97zM.12 68.4v-1.23h3.25v1.23zm6.67 5.12q-1.26 0-1.95-.71-.7-.72-.7-2.02v-.99q0-1.29.7-2 .69-.7 1.95-.7t1.95.7q.69.71.69 2v1.03q0 1.3-.7 2-.68.71-1.94.71zm0-1.38q.57 0 .89-.35.3-.35.3-.98V69.8q0-.63-.3-.97-.32-.35-.89-.35-.57 0-.89.35-.31.34-.31.97v1.03q0 .63.31.98.32.35.89.35zm4.27 1.29v-6.26h1.5v6.26zm3.48-4.65q-.14-.16-.35-.23-.21-.09-.5-.09-.53 0-.84.33-.3.32-.3.89l-.12-1.42q.27-.55.7-.87.45-.3.97-.3.41 0 .74.12.34.12.58.36zm9.17 4.65v-3.7q0-.6-.3-.94-.3-.33-.85-.33-.53 0-.82.32-.28.32-.28.9l-.28-1.33q.3-.61.78-.94.48-.33 1.06-.33 1.02 0 1.57.7.56.68.56 1.94v3.7zm-7.38 0v-6.26h1.44v6.26zm3.7 0v-3.7q0-.6-.3-.94-.3-.33-.85-.33-.53 0-.82.3-.3.28-.3.8l-.12-1.3q.28-.56.72-.87.44-.3 1.01-.3 1 0 1.54.68.55.7.55 1.95v3.7z" aria-label="Datenplattform" font-family="Bahnschrift" font-size="12.35" font-weight="600" letter-spacing="0" style="line-height:1.25;-inkscape-font-specification:&quot;Bahnschrift Semi-Bold&quot;;text-align:center" text-anchor="middle" transform="translate(131.82 -62.78)" word-spacing="0"/>
</svg>
