<svg xmlns="http://www.w3.org/2000/svg" width="16" height="16" viewBox="0 0 16 16" fill="none"><g clip-path="url(#clip0_721_5791)"><path d="M15.691 3.27315C15.1961 2.76255 14.4681 3.07206 13.9512 3.36771C12.5517 4.16827 11.2217 5.09428 9.85376 5.94591C9.80207 5.97806 9.76173 6.01651 9.73084 6.05812C9.96344 6.23147 10.1979 6.40545 10.4331 6.58006C11.6081 5.84442 12.7629 5.07789 13.9474 4.35738C14.1491 4.23446 14.794 3.72639 15.0417 3.83859C15.331 3.96971 15.0726 4.72174 15.0102 4.943C14.7732 5.78012 14.4844 6.60591 14.1705 7.41719C13.9953 7.87042 13.8106 8.32051 13.6152 8.76555C13.5257 8.96915 13.37 9.58629 13.1392 9.62348C12.9791 9.64932 12.6135 9.33477 12.4874 9.24715C12.2882 9.10973 12.0941 8.96474 11.898 8.82291C11.5551 8.57454 11.2128 8.32429 10.8718 8.0734C9.36081 6.96143 7.86369 5.82992 6.35017 4.72111C5.91081 4.39899 5.48846 5.13211 5.92342 5.45107C7.38776 6.52459 8.83698 7.61891 10.2988 8.69621C11.0086 9.21941 11.7203 9.84915 12.5026 10.2589C13.0939 10.569 13.6524 10.5526 14.0079 9.93425C14.4138 9.22887 14.6931 8.39993 14.9856 7.64223C15.2989 6.83032 15.5876 6.00517 15.8252 5.16804C15.991 4.58242 16.1694 3.76736 15.691 3.27315Z" fill="url(#paint0_radial_721_5791)"/><path d="M5.05407 11.3916C4.31906 11.8196 3.58216 12.2445 2.84211 12.6636C2.48343 12.8666 2.12538 13.0696 1.76229 13.265C1.5757 13.3652 1.30654 13.5537 1.09221 13.4314C0.804762 13.2682 0.831237 12.6763 0.866538 12.4033C0.947225 11.778 1.11301 11.147 1.25611 10.533C1.48745 9.53891 1.7894 8.56562 2.08315 7.58918C2.24011 7.06724 1.42441 6.84409 1.26808 7.36414C0.916968 8.53095 0.568374 9.69272 0.311814 10.8847C0.111988 11.8139 -0.396089 13.3936 0.576569 14.0996C1.09284 14.4747 1.68034 14.2686 2.18905 13.995C3.03311 13.5411 3.86268 13.0583 4.69224 12.5792C6.37595 11.6065 8.04769 10.6137 9.73455 9.64608C9.78814 9.61582 9.82911 9.57863 9.86063 9.53891C9.62109 9.36304 9.38281 9.18654 9.14453 9.01066C7.77663 9.79736 6.41756 10.5986 5.05344 11.3922L5.05407 11.3916Z" fill="url(#paint1_radial_721_5791)"/></g><defs><radialGradient id="paint0_radial_721_5791" cx="0" cy="0" r="1" gradientUnits="userSpaceOnUse" gradientTransform="translate(0.305577 13.8879) scale(18.4515)"><stop stop-color="#000AFA"/><stop offset="0.97" stop-color="#BA477F"/></radialGradient><radialGradient id="paint1_radial_721_5791" cx="0" cy="0" r="1" gradientUnits="userSpaceOnUse" gradientTransform="translate(0.305511 13.8878) scale(18.4515 18.4515)"><stop stop-color="#000AFA"/><stop offset="0.97" stop-color="#BA477F"/></radialGradient><clipPath id="clip0_721_5791"><rect width="16" height="16" fill="white"/></clipPath></defs></svg>